<svg width="40" height="40" viewBox="0 0 40 40" fill="none" xmlns="http://www.w3.org/2000/svg">
<rect width="40" height="40" rx="20" fill="#4EA4F6"/>
<path d="M9.28222 19.7348C9.28222 19.7348 18.5322 15.836 21.7403 14.4632C22.9701 13.914 27.1406 12.1568 27.1406 12.1568C27.1406 12.1568 29.0655 11.388 28.9051 13.2551C28.8516 14.0238 28.4238 16.7146 27.9961 19.625C27.3545 23.7435 26.6594 28.2464 26.6594 28.2464C26.6594 28.2464 26.5525 29.5094 25.6435 29.7291C24.7345 29.9487 23.2374 28.9603 22.9701 28.7406C22.7562 28.5759 18.96 26.1048 17.5698 24.8967C17.1955 24.5672 16.7678 23.9082 17.6233 23.1395C19.5481 21.3273 21.8472 19.0759 23.2374 17.6481C23.879 16.9892 24.5207 15.4516 21.8472 17.3186C18.051 20.0094 14.3082 22.5354 14.3082 22.5354C14.3082 22.5354 13.4527 23.0845 11.8487 22.5903C10.2446 22.0961 8.37326 21.4371 8.37326 21.4371C8.37326 21.4371 7.09002 20.6134 9.28222 19.7348Z" fill="white"/>
</svg>
