<svg width="22" height="20" viewBox="0 0 22 20" fill="none" xmlns="http://www.w3.org/2000/svg">
<path d="M20.9839 12.5737C20.4235 12.5737 19.9685 13.0202 19.9685 13.5719V15.7791C19.9685 17.0054 18.9538 18.0036 17.7057 18.0036H4.29364C3.04621 18.0036 2.03081 17.006 2.03081 15.7791V13.5719C2.03081 13.0209 1.5759 12.5737 1.0154 12.5737C0.454912 12.5737 0 13.0202 0 13.5719V15.7791C0 18.1061 1.92588 20 4.29364 20H17.7064C20.0735 20 22 18.1067 22 15.7791V13.5719C22 13.0209 21.5457 12.5737 20.9846 12.5737H20.9839Z" fill="#323232"/>
<path d="M10.2818 14.2779C10.2818 14.2779 10.2857 14.2818 10.2877 14.2837C10.3098 14.3048 10.332 14.3253 10.3561 14.3446C10.3606 14.3484 10.3652 14.3516 10.3704 14.3548C10.3893 14.3696 10.4082 14.3836 10.4284 14.3965C10.4382 14.4029 10.4473 14.4093 10.4571 14.415C10.4727 14.4247 10.489 14.4343 10.506 14.4432C10.5164 14.449 10.5268 14.4548 10.5373 14.4599C10.5614 14.4721 10.5861 14.4836 10.6116 14.4938C10.6415 14.506 10.6722 14.5169 10.7035 14.5265C10.7048 14.5265 10.7054 14.5272 10.7067 14.5278C10.7354 14.5361 10.7647 14.5432 10.7934 14.549C10.7967 14.5496 10.7999 14.5509 10.8038 14.5515C10.8279 14.556 10.8527 14.5592 10.8768 14.5618C10.8853 14.563 10.8938 14.5643 10.9016 14.5656C10.9192 14.5675 10.9361 14.5675 10.9537 14.5682C10.9687 14.5688 10.9844 14.5701 10.9993 14.5701C11.0039 14.5701 11.0091 14.5701 11.0137 14.5695C11.0417 14.5695 11.0697 14.5682 11.0978 14.5656C11.1023 14.5656 11.1075 14.5643 11.1121 14.5637C11.1401 14.5605 11.1681 14.5566 11.1955 14.5515H11.1975C11.3565 14.5201 11.5097 14.4516 11.6413 14.3458C11.6674 14.3247 11.6928 14.3023 11.7176 14.2779L16.5156 9.56112C16.9119 9.17158 16.9119 8.53921 16.5156 8.14967C16.1194 7.76012 15.4761 7.76012 15.0799 8.14967L12.0148 11.1629V0.998206C12.0148 0.447207 11.5605 0 10.9993 0C10.4382 0 9.98394 0.446566 9.98394 0.998206V11.1622L6.91883 8.14903C6.52257 7.75948 5.87931 7.75948 5.48305 8.14903C5.0868 8.53857 5.0868 9.17094 5.48305 9.56048L10.2818 14.2779Z" fill="#323232"/>
</svg>
