<svg width="152" height="196" viewBox="0 0 152 196" fill="none" xmlns="http://www.w3.org/2000/svg">
<path d="M69.2486 154.504C69.2486 154.504 70.0452 154.559 70.1209 154.504C70.1965 154.449 70.2217 154.324 70.2419 154.249C70.2621 154.174 70.4184 88.6826 70.4184 88.6826C70.4184 88.6826 70.7511 84.1722 68.2805 78.8098C66.0368 74.3195 64.5493 72.7459 64.5493 72.7459L53.0129 59.5504C53.0129 59.5504 49.0397 55.5262 48.9641 52.4441C48.8885 49.3619 49.9221 47.6781 50.2902 46.9163C50.6532 46.1546 54.0365 41.8396 54.0365 41.8396C54.0365 41.8396 70.1864 22.1442 70.3377 20.9565C70.489 19.7737 70.4133 0.0633021 70.3831 0.0282212C70.3528 -0.0118712 69.5915 -0.00685963 69.531 0.0282212C69.4654 0.0633021 19.0643 66.7771 19.0643 66.7771C19.0643 66.7771 14.2087 72.7008 13.4171 77.2763C12.4894 82.3981 18.8626 89.1286 18.8626 89.1286L69.2536 154.499L69.2486 154.504ZM30.3536 76.3542C30.7318 70.7162 38.295 62.6325 38.295 62.6325L40.9925 65.6295C40.9925 65.6295 51.8633 78.0731 54.3037 80.8646C56.7441 83.661 58.2366 89.0835 58.2366 90.9378V115.394L36.7571 89.1787C36.7571 89.1787 29.9755 81.9872 30.3536 76.3492V76.3542Z" fill="black"/>
<path d="M95.0996 59.5504L83.6892 72.7459C83.6892 72.7459 82.2169 74.3195 79.9984 78.8098C77.553 84.1722 77.8858 88.6826 77.8858 88.6826C77.8858 88.6826 78.037 154.174 78.0622 154.249C78.0824 154.324 78.1076 154.444 78.1832 154.504C78.2589 154.559 79.0454 154.504 79.0454 154.504L128.897 89.1336C128.897 89.1336 135.2 82.4031 134.287 77.2813C133.5 72.7058 128.7 66.7821 128.7 66.7821C128.685 66.7821 78.8286 0.0683137 78.7631 0.0332328C78.6975 -0.00184808 77.9463 -0.00685963 77.916 0.0332328C77.8858 0.0683137 77.8152 19.7788 77.9614 20.9615C78.1127 22.1442 94.0861 41.8446 94.0861 41.8446C94.0861 41.8446 97.429 46.1596 97.7921 46.9213C98.1551 47.6831 99.1787 49.367 99.103 52.4491C99.0274 55.5312 95.0996 59.5555 95.0996 59.5555V59.5504ZM106.984 65.6295L109.651 62.6325C109.651 62.6325 117.134 70.7162 117.507 76.3542C117.88 81.9922 111.169 89.1838 111.169 89.1838L89.9163 115.399V90.9428C89.9163 89.0885 91.3936 83.661 93.8088 80.8696C96.224 78.0731 106.979 65.6345 106.979 65.6345L106.984 65.6295Z" fill="black"/>
<path d="M118.757 194.682C116.559 194.637 115.44 193.66 115.389 191.755C115.495 189.871 116.645 188.889 118.843 188.803C120.305 188.849 121.288 189.355 121.818 190.317L123.83 189.936C122.892 188.408 121.263 187.636 118.954 187.616C115.298 187.696 113.443 189.079 113.377 191.75C113.463 194.396 115.273 195.744 118.828 195.79C121.656 195.815 123.406 194.928 124.072 193.143L121.999 192.808C121.596 194.081 120.517 194.702 118.762 194.677L118.757 194.682Z" fill="black"/>
<path d="M151.995 194.497L144.83 194.512L144.825 192.101L151.304 192.091V190.943L144.815 190.958L144.805 188.859L151.687 188.844L151.682 187.656L142.899 187.681L142.934 195.624L152 195.604L151.995 194.497Z" fill="black"/>
<path d="M24.177 187.821C20.4912 187.956 18.5601 189.34 18.3786 191.961C18.5399 194.537 20.4458 195.885 24.1064 196C27.8678 195.915 29.804 194.547 29.8998 191.901C29.6275 189.33 27.7166 187.971 24.177 187.826V187.821ZM24.0358 194.928C21.6862 194.807 20.4509 193.815 20.3349 191.961C20.4761 190.101 21.7417 189.099 24.1266 188.969C26.4409 189.119 27.6964 190.106 27.8931 191.941C27.8225 193.85 26.5367 194.847 24.0358 194.928Z" fill="black"/>
<path d="M131.579 187.741L129.613 187.746L129.648 195.654L137.418 195.639V194.532L131.6 194.542L131.579 187.741Z" fill="black"/>
<path d="M10.1599 188.002L7.1094 193.359C6.96318 193.62 6.79679 193.92 6.61023 194.276C6.56989 194.226 6.5346 194.141 6.4993 194.015C6.31275 193.705 6.19678 193.494 6.15644 193.364L3.00511 188.027H0.715982L0.746235 195.935H2.48073L2.46056 191.234C2.46056 190.673 2.41518 190.106 2.33955 189.515H2.40005C2.54628 189.921 2.75804 190.377 3.02023 190.888L5.95475 195.93H7.301L10.1296 190.878C10.4221 190.417 10.6439 189.961 10.7902 189.5H10.8507C10.7397 190.262 10.6843 190.833 10.6843 191.219L10.7145 195.92H12.4994L12.4692 188.007H10.1649L10.1599 188.002Z" fill="black"/>
<path d="M106.333 187.796C104.332 189.911 103.253 191.034 103.101 191.164C103.071 191.189 103.031 191.224 103.001 191.274C102.96 191.324 102.92 191.369 102.89 191.389C102.809 191.264 102.754 191.189 102.718 191.164C102.683 191.134 102.663 191.114 102.663 191.084L99.4005 187.766H97.2274L101.947 192.497L101.962 195.709H103.868L103.853 192.452L108.759 187.786H106.344L106.333 187.796Z" fill="black"/>
<path d="M44.406 187.931L34.7302 187.951V189.099L38.6429 189.094L38.6782 195.85H40.5791L40.5488 189.089L44.4111 189.079L44.406 187.931Z" fill="black"/>
<path d="M76.1311 190.081C76.0101 188.633 74.6487 187.881 72.0369 187.836L66.6166 187.846L66.6519 195.79H68.5528L68.5377 192.427H70.8923L74.8201 195.774L77.3916 195.764L73.0705 192.337C75.1277 192.126 76.1462 191.374 76.1361 190.076L76.1311 190.081ZM68.5326 191.244V189.029L71.7142 189.019C73.3125 189.044 74.1395 189.385 74.1748 190.046C74.2151 190.833 73.3983 191.234 71.7243 191.234L68.5276 191.244H68.5326Z" fill="black"/>
<path d="M55.1205 187.756C51.4297 187.891 49.4935 189.27 49.3171 191.896C49.4784 194.466 51.3894 195.815 55.0449 195.935C58.8013 195.85 60.7375 194.487 60.8383 191.83C60.5711 189.259 58.6601 187.901 55.1205 187.756ZM54.9743 194.862C52.6247 194.737 51.3894 193.75 51.2734 191.891C51.4196 190.031 52.6751 189.034 55.06 188.899C57.3744 189.049 58.6299 190.041 58.8215 191.87C58.7509 193.775 57.4702 194.777 54.9693 194.857L54.9743 194.862Z" fill="black"/>
<path d="M87.4255 194.752C85.2271 194.707 84.1077 193.73 84.0573 191.82C84.1632 189.941 85.3128 188.954 87.5112 188.874C88.9734 188.924 89.9566 189.43 90.486 190.397L92.4928 190.011C91.56 188.488 89.9314 187.716 87.6171 187.696C83.9615 187.776 82.106 189.159 82.0455 191.83C82.1262 194.477 83.9414 195.825 87.491 195.87C90.3196 195.89 92.0693 195.003 92.7348 193.219L90.6676 192.878C90.2642 194.151 89.1801 194.782 87.4255 194.757V194.752Z" fill="black"/>
<path d="M28.0746 173.884C29.7839 172.927 30.6309 171.599 30.6208 169.89C30.6208 168.517 30.0309 167.354 28.8712 166.407C27.5754 165.364 25.8308 164.848 23.6526 164.848L0 164.903L0.0756319 183.241L24.1619 183.185C26.3451 183.185 28.0847 182.654 29.3654 181.602C30.5553 180.65 31.1301 179.487 31.1301 178.114C31.12 176.214 30.1066 174.806 28.0746 173.884ZM5.80853 169.173L23.6627 169.128C24.4997 169.128 24.9232 169.584 24.9232 170.501C24.9333 171.418 24.5098 171.869 23.6778 171.869L5.82366 171.909L5.81357 169.168L5.80853 169.173ZM24.0963 178.906L5.84887 178.946L5.83878 176.199L24.0812 176.154C24.9232 176.154 25.3317 176.61 25.3417 177.522C25.3417 178.445 24.9384 178.901 24.0963 178.906Z" fill="black"/>
<path d="M59.3761 178.82L38.7185 178.871L38.7034 176.119L58.0551 176.079L58.0349 171.794L38.6883 171.839L38.6782 169.093L59.3761 169.043L59.361 164.763L32.8646 164.828L32.9503 183.16L59.3912 183.1L59.3761 178.82Z" fill="black"/>
<path d="M67.5897 170.742L82.5548 183.045L88.3583 183.03L88.2776 164.698L82.4791 164.713L82.5346 176.981L67.5645 164.743L61.7711 164.758L61.8518 183.09L67.6553 183.08L67.5897 170.742Z" fill="black"/>
<path d="M117.956 177.157L117.925 170.426C117.92 168.767 117.129 167.384 115.576 166.287C114.003 165.184 112.102 164.638 109.843 164.643L90.6776 164.688L90.6978 168.973L109.898 168.928C111.391 168.928 112.132 169.434 112.142 170.451L112.172 177.167C112.172 178.189 111.431 178.7 109.939 178.705L96.5315 178.735L96.5013 171.453L90.7029 171.468L90.7583 183.025L109.918 182.98C112.172 182.98 114.073 182.419 115.641 181.311C117.194 180.204 117.956 178.82 117.956 177.162V177.157Z" fill="black"/>
<path d="M144.996 170.231L145.007 172.802L129.764 172.837L129.784 177.116L145.037 177.076L145.052 182.895L150.855 182.88L150.8 170.206C150.8 168.662 150.124 167.334 148.823 166.221C147.518 165.114 145.823 164.553 143.721 164.558L127.324 164.598C125.257 164.598 123.583 165.164 122.282 166.281C120.986 167.399 120.346 168.732 120.351 170.276L120.401 182.955L126.194 182.94L126.134 170.276C126.134 169.349 126.527 168.887 127.334 168.882L143.731 168.842C144.573 168.837 144.996 169.303 145.002 170.231H144.996Z" fill="black"/>
</svg>
