<svg width="143" height="30" viewBox="0 0 143 30" fill="none" xmlns="http://www.w3.org/2000/svg">
<path d="M9.52458 22.3721H11.6847L11.7131 29.9187H10.0398L10.0114 25.4376C10.0114 25.0693 10.0587 24.5242 10.1674 23.7972H10.1107C9.97363 24.2372 9.76565 24.6724 9.49149 25.1124L6.83974 29.9283H5.57767L2.82665 25.122C2.58085 24.6389 2.38233 24.2037 2.24525 23.8116H2.18853C2.26416 24.3711 2.30197 24.9163 2.30197 25.4519L2.32088 29.9378H0.699572L0.671211 22.3912H2.82192L5.7762 27.4845C5.81401 27.6088 5.92273 27.8097 6.09762 28.1062C6.13071 28.2257 6.1638 28.307 6.20161 28.3549C6.3765 28.0153 6.53249 27.7236 6.66957 27.4797L9.52931 22.3673L9.52458 22.3721ZM22.5376 28.9813C24.8821 28.9048 26.0827 27.9483 26.1536 26.131C25.9693 24.3855 24.7923 23.4385 22.6227 23.2951C20.3869 23.4194 19.2051 24.3759 19.0681 26.1502C19.1768 27.9244 20.3349 28.8666 22.5376 28.9813ZM22.6699 22.1999C25.9882 22.3386 27.7844 23.6346 28.0349 26.088C27.9451 28.6179 26.13 29.9235 22.6037 30C19.1721 29.89 17.3853 28.6035 17.2341 26.1454C17.4042 23.6442 19.2146 22.329 22.6699 22.1951V22.1999ZM41.634 23.4003L38.0132 23.4099L38.0416 29.8613H36.2596L36.2312 23.4146H32.5632V22.329L41.634 22.3099V23.4051V23.4003ZM51.5462 28.9192C53.8907 28.8427 55.0913 27.8862 55.1575 26.0689C54.9731 24.3185 53.8009 23.3764 51.6313 23.2329C49.3955 23.362 48.2138 24.3089 48.0814 26.088C48.1901 27.8623 49.3482 28.8044 51.5509 28.924L51.5462 28.9192ZM51.6833 22.1377C55.0015 22.2764 56.793 23.5725 57.0435 26.0258C56.949 28.5605 55.1338 29.8613 51.6124 29.9426C48.1854 29.8278 46.3939 28.5414 46.2427 26.088C46.4081 23.582 48.2232 22.2669 51.6833 22.1377ZM64.2472 23.3525V25.4663L67.2487 25.4567C68.818 25.4567 69.5838 25.0741 69.546 24.3233C69.5129 23.692 68.7377 23.3668 67.2393 23.3429L64.2472 23.3525ZM72.557 29.7848L70.1463 29.7944L66.4641 26.5949H64.2566L64.2708 29.8087H62.4888L62.4557 22.2286L67.5371 22.219C69.9856 22.2573 71.2618 22.9747 71.3753 24.3615C71.3847 25.6002 70.4299 26.3176 68.5013 26.5184L72.5522 29.7896L72.557 29.7848ZM86.7186 24.285L84.8373 24.6533C84.3363 23.7303 83.4145 23.2472 82.0485 23.1994C79.9876 23.2807 78.9098 24.2181 78.8106 26.0115C78.8578 27.8336 79.9072 28.7661 81.9681 28.8092C83.613 28.8331 84.6293 28.2353 85.0075 27.0158L86.9455 27.341C86.3215 29.0435 84.6813 29.89 82.0295 29.8709C78.7019 29.8278 77.0002 28.5414 76.9246 26.0163C76.9813 23.4625 78.7208 22.1473 82.1477 22.0708C84.3173 22.0899 85.8394 22.8264 86.7186 24.2802V24.285ZM101.953 22.176L97.354 26.6284L97.3681 29.7274H95.5814L95.5672 26.6714L91.1429 22.1616H93.1802L96.2384 25.3228C96.2384 25.3467 96.2573 25.3706 96.2904 25.3993C96.3282 25.4232 96.3802 25.495 96.4511 25.6145C96.4842 25.5954 96.5173 25.5524 96.5551 25.5045C96.5835 25.4567 96.6213 25.4232 96.6497 25.3993C96.7915 25.275 97.803 24.2037 99.6796 22.1856H101.944L101.953 22.176ZM116.091 24.2181L114.205 24.5815C113.709 23.6633 112.787 23.1803 111.416 23.1373C109.355 23.2186 108.278 24.1511 108.178 25.9541C108.226 27.7714 109.27 28.7088 111.336 28.747C112.981 28.7709 113.992 28.1731 114.371 26.9632L116.313 27.2836C115.689 28.9861 114.049 29.8326 111.397 29.8087C108.07 29.7657 106.373 28.4792 106.288 25.9541C106.344 23.4051 108.089 22.0851 111.516 22.0086C113.685 22.0277 115.207 22.7642 116.086 24.2229L116.091 24.2181ZM121.513 22.1282L123.352 22.1186L123.37 28.6131L128.825 28.5988V29.6557L121.541 29.67L121.508 22.1234L121.513 22.1282ZM135.778 28.5844L142.491 28.5701L142.5 29.627L134.001 29.6461L133.968 22.066L142.202 22.0469V23.1755L135.755 23.1899L135.769 25.1985L141.852 25.1841V26.2793L135.778 26.2889L135.788 28.5844H135.778Z" fill="white"/>
<path d="M26.319 8.89526C28.224 9.77523 29.174 11.1191 29.1835 12.9316C29.1835 14.242 28.6446 15.3515 27.5291 16.2602C26.3285 17.2645 24.6977 17.7666 22.651 17.7714L0.0709026 17.824L0 0.325203L22.1736 0.272597C24.2156 0.272597 25.8511 0.765184 27.0659 1.75992C28.153 2.6638 28.7014 3.77331 28.7061 5.08369C28.7155 6.71449 27.9214 7.98661 26.319 8.89526ZM22.1972 6.97752C22.9772 6.97752 23.3742 6.54232 23.3648 5.67193C23.3648 4.79675 22.9724 4.36155 22.1831 4.36155L5.44532 4.40459L5.45477 7.02056L22.1925 6.97752H22.1972ZM22.5943 13.692C23.3837 13.692 23.7618 13.252 23.7618 12.3721C23.7524 11.5017 23.3695 11.0665 22.5801 11.0665L5.47841 11.1095L5.48786 13.7303L22.5943 13.692Z" fill="white"/>
<path d="M55.6632 4.28025L36.2596 4.32807L36.269 6.94405L54.4059 6.901L54.4248 10.99L36.2832 11.033L36.2974 13.6538L55.6632 13.6059L55.6774 17.6901L30.8899 17.7523L30.8095 0.253467L55.6491 0.191296L55.6632 4.28025Z" fill="white"/>
<path d="M82.8331 17.6231L77.3925 17.6375L63.3633 5.8967L63.4247 17.671L57.9841 17.6853L57.9085 0.186514L63.3396 0.172166L77.3736 11.8508L77.3216 0.143472L82.7575 0.129125L82.8331 17.6231Z" fill="white"/>
<path d="M110.58 12.0182C110.58 13.6011 109.861 14.9211 108.41 15.978C106.945 17.0349 105.163 17.5658 103.045 17.5705L85.0831 17.6136L85.0311 6.58537L90.467 6.57102L90.4953 13.5198L103.064 13.4912C104.463 13.4912 105.158 12.9986 105.158 12.023L105.13 5.61454C105.12 4.63893 104.425 4.15591 103.026 4.16069L85.0264 4.20373L85.0075 0.114778L102.974 0.071736C105.087 0.071736 106.869 0.588235 108.349 1.64036C109.804 2.68771 110.542 4.01243 110.551 5.59063L110.58 12.0134V12.0182Z" fill="white"/>
<path d="M141.418 17.4845L135.977 17.4988L135.963 11.9464L121.664 11.9847L121.645 7.90053L135.934 7.86705L135.925 5.41368C135.925 4.53372 135.528 4.08417 134.734 4.08895L119.362 4.12721C118.601 4.12721 118.237 4.57197 118.237 5.45672L118.294 17.5418L112.863 17.5562L112.815 5.45672C112.815 3.98374 113.416 2.71162 114.626 1.64515C115.841 0.57867 117.415 0.0430416 119.353 0.0382592L134.724 0C136.695 0 138.288 0.530846 139.508 1.58776C140.727 2.64945 141.361 3.91679 141.361 5.38977L141.413 17.4845H141.418Z" fill="white"/>
</svg>
