<svg version="1.1" xmlns="http://www.w3.org/2000/svg" xmlns:xlink="http://www.w3.org/1999/xlink" width="512px" height="512px" viewBox="0,0,256,256"><g fill="#ffffff" fill-rule="nonzero" stroke="none" stroke-width="1" stroke-linecap="butt" stroke-linejoin="miter" stroke-miterlimit="10" stroke-dasharray="" stroke-dashoffset="0" font-family="none" font-weight="none" font-size="none" text-anchor="none" style="mix-blend-mode: normal"><g transform="scale(0.5,0.5)"><g><g><path d="M256,0c-107.523,0 -195,87.477 -195,195c0,69.412 21.115,97.248 122.581,231.01c17.613,23.219 37.577,49.536 60.419,79.99c2.833,3.777 7.279,6 12.001,6c4.722,0 9.167,-2.224 12,-6.002c22.708,-30.29 42.585,-56.507 60.123,-79.638c101.71,-134.151 122.876,-162.068 122.876,-231.36c0,-107.523 -87.477,-195 -195,-195zM304.219,408.235c-14.404,18.998 -30.383,40.074 -48.222,63.789c-17.961,-23.867 -34.031,-45.052 -48.515,-64.146c-98.698,-130.112 -116.482,-153.557 -116.482,-212.878c0,-90.981 74.019,-165 165,-165c90.981,0 165,74.019 165,165c0,59.205 -17.83,82.722 -116.781,213.235z"></path></g></g><g><g><path d="M256,90c-57.897,0 -105,47.103 -105,105c0,57.897 47.103,105 105,105c57.897,0 105,-47.103 105,-105c0,-57.897 -47.103,-105 -105,-105zM256,270c-41.355,0 -75,-33.645 -75,-75c0,-41.355 33.645,-75 75,-75c41.355,0 75,33.645 75,75c0,41.355 -33.645,75 -75,75z"></path></g></g></g></g></svg>