<svg version="1.1" xmlns="http://www.w3.org/2000/svg" xmlns:xlink="http://www.w3.org/1999/xlink" width="512px" height="512px" viewBox="0,0,256,256"><g fill="#ffffff" fill-rule="nonzero" stroke="none" stroke-width="1" stroke-linecap="butt" stroke-linejoin="miter" stroke-miterlimit="10" stroke-dasharray="" stroke-dashoffset="0" font-family="none" font-weight="none" font-size="none" text-anchor="none" style="mix-blend-mode: normal"><g transform="translate(0.01546,-0.01543) scale(0.5,0.5)"><path d="M132.9,379.1c43.917,43.916 93.625,80.781 151.965,112.7c24.592,13.455 50.237,20.236 75.867,20.235c16.24868,-0.02751 32.38284,-2.71991 47.76,-7.97c36.727,-12.418 70.279,-39.429 94.477,-76.058c16.673,-25.243 6.082,-40.884 0.754,-46.438l-68.854,-71.769c-13.169,-13.726 -34.162,-16.388 -51.043,-6.476c-22.16048,13.00346 -45.61332,23.66682 -69.98,31.818c-0.73367,0.24561 -1.45341,0.53103 -2.156,0.855c-2.525,0.292 -12.069,-1.4 -29.643,-12.455c-15.906,-10 -34.151,-25 -51.372,-42.221c-17.221,-17.221 -32.217,-35.466 -42.221,-51.372c-11.054,-17.57 -12.736,-27.106 -12.454,-29.639c0.32397,-0.70259 0.60939,-1.42233 0.855,-2.156c8.15099,-24.36644 18.81437,-47.81896 31.818,-69.979c9.912,-16.885 7.249,-37.875 -6.477,-51.045l-71.767,-68.855c-5.553,-5.326 -21.2,-15.92 -46.438,0.756c-36.628,24.197 -63.639,57.749 -76.057,94.476c-13.834,40.922 -9.596,83.671 12.266,123.627c31.92,58.34 68.785,108.048 112.7,151.966zM405.162,339.508l62.738,65.392c-3.56919,5.39586 -7.4421,10.58456 -11.6,15.541c-20.69638,-25.45146 -42.95497,-49.59169 -66.647,-72.281c5.20667,-2.762 10.351,-5.63133 15.433,-8.608c0.028,-0.019 0.053,-0.032 0.077,-0.045zM172.492,106.838c-0.013,0.024 -0.026,0.049 -0.042,0.075c-3,5.11267 -5.88867,10.29367 -8.666,15.543c-22.60113,-23.78362 -46.68244,-46.11545 -72.1,-66.862c4.91875,-4.11778 10.06558,-7.95519 15.416,-11.494zM63.2,86.561c29.10703,23.59124 56.37027,49.3705 81.552,77.113c-2.626,6.62533 -5.07867,13.31233 -7.358,20.061c-17.517,39.921 38.447,102.152 63.584,127.289c25.137,25.137 87.364,81.1 127.289,63.584c6.81133,-2.298 13.56333,-4.777 20.256,-7.437c27.59625,25.28331 53.25755,52.60058 76.768,81.722c-18.638,12.841 -40.488,21.238 -64.445,21.237c-17.618,0 -36.378,-4.538 -55.818,-15.175c-107.856,-59.012 -188.971,-140.127 -247.983,-247.981c-25.139,-45.946 -16.204,-88.047 6.155,-120.413z"></path></g></g></svg>